<mxfile host="app.diagrams.net" modified="2023-03-24T20:20:46.899Z" agent="Mozilla/5.0 (Windows NT 10.0; Win64; x64) AppleWebKit/537.36 (KHTML, like Gecko) Chrome/111.0.0.0 Safari/537.36" etag="iaFz1lxdsdQgVR9xFvW7" version="21.1.0" type="github">
  <diagram name="Страница 1" id="J2S2CzA0JyalAQO748U5">
    <mxGraphModel dx="4045" dy="2260" grid="1" gridSize="10" guides="1" tooltips="1" connect="1" arrows="1" fold="1" page="1" pageScale="1" pageWidth="827" pageHeight="1169" math="0" shadow="0">
      <root>
        <mxCell id="0" />
        <mxCell id="1" parent="0" />
        <mxCell id="zMtMV4mrz83m1IBiiHHf-2" value="QComment" style="rounded=0;whiteSpace=wrap;html=1;" parent="1" vertex="1">
          <mxGeometry x="770" y="80" width="120" height="60" as="geometry" />
        </mxCell>
        <mxCell id="zMtMV4mrz83m1IBiiHHf-3" value="Question" style="rounded=0;whiteSpace=wrap;html=1;" parent="1" vertex="1">
          <mxGeometry x="780" y="340" width="120" height="60" as="geometry" />
        </mxCell>
        <mxCell id="zMtMV4mrz83m1IBiiHHf-5" value="Game" style="rounded=0;whiteSpace=wrap;html=1;" parent="1" vertex="1">
          <mxGeometry x="-260" y="520" width="120" height="60" as="geometry" />
        </mxCell>
        <mxCell id="zMtMV4mrz83m1IBiiHHf-6" value="ShoppingCart" style="rounded=0;whiteSpace=wrap;html=1;" parent="1" vertex="1">
          <mxGeometry x="105" y="80" width="120" height="60" as="geometry" />
        </mxCell>
        <mxCell id="zMtMV4mrz83m1IBiiHHf-7" value="User" style="rounded=0;whiteSpace=wrap;html=1;" parent="1" vertex="1">
          <mxGeometry x="370" y="340" width="120" height="60" as="geometry" />
        </mxCell>
        <mxCell id="zMtMV4mrz83m1IBiiHHf-9" value="Text" style="ellipse;whiteSpace=wrap;html=1;" parent="1" vertex="1">
          <mxGeometry x="1000" y="70" width="120" height="80" as="geometry" />
        </mxCell>
        <mxCell id="zMtMV4mrz83m1IBiiHHf-13" value="" style="endArrow=none;html=1;rounded=0;exitX=1;exitY=0.5;exitDx=0;exitDy=0;" parent="1" source="zMtMV4mrz83m1IBiiHHf-2" edge="1">
          <mxGeometry width="50" height="50" relative="1" as="geometry">
            <mxPoint x="880" y="250" as="sourcePoint" />
            <mxPoint x="1000" y="110" as="targetPoint" />
          </mxGeometry>
        </mxCell>
        <mxCell id="zMtMV4mrz83m1IBiiHHf-17" value="Name" style="ellipse;whiteSpace=wrap;html=1;" parent="1" vertex="1">
          <mxGeometry x="1000" y="330" width="120" height="80" as="geometry" />
        </mxCell>
        <mxCell id="zMtMV4mrz83m1IBiiHHf-18" value="Text" style="ellipse;whiteSpace=wrap;html=1;" parent="1" vertex="1">
          <mxGeometry x="1000" y="430" width="120" height="80" as="geometry" />
        </mxCell>
        <mxCell id="zMtMV4mrz83m1IBiiHHf-19" value="" style="endArrow=none;html=1;rounded=0;exitX=1;exitY=0.5;exitDx=0;exitDy=0;entryX=0;entryY=0.5;entryDx=0;entryDy=0;" parent="1" source="zMtMV4mrz83m1IBiiHHf-3" edge="1">
          <mxGeometry width="50" height="50" relative="1" as="geometry">
            <mxPoint x="880" y="510" as="sourcePoint" />
            <mxPoint x="1000" y="370" as="targetPoint" />
          </mxGeometry>
        </mxCell>
        <mxCell id="zMtMV4mrz83m1IBiiHHf-20" value="" style="endArrow=none;html=1;rounded=0;" parent="1" edge="1">
          <mxGeometry width="50" height="50" relative="1" as="geometry">
            <mxPoint x="950" y="370" as="sourcePoint" />
            <mxPoint x="950" y="470" as="targetPoint" />
          </mxGeometry>
        </mxCell>
        <mxCell id="zMtMV4mrz83m1IBiiHHf-22" value="" style="endArrow=none;html=1;rounded=0;entryX=0;entryY=0.5;entryDx=0;entryDy=0;" parent="1" target="zMtMV4mrz83m1IBiiHHf-18" edge="1">
          <mxGeometry width="50" height="50" relative="1" as="geometry">
            <mxPoint x="950" y="470" as="sourcePoint" />
            <mxPoint x="1010" y="480" as="targetPoint" />
          </mxGeometry>
        </mxCell>
        <mxCell id="zMtMV4mrz83m1IBiiHHf-23" value="" style="endArrow=none;html=1;rounded=0;exitX=0.417;exitY=-0.05;exitDx=0;exitDy=0;exitPerimeter=0;entryX=0.5;entryY=1;entryDx=0;entryDy=0;" parent="1" source="zMtMV4mrz83m1IBiiHHf-3" target="zMtMV4mrz83m1IBiiHHf-2" edge="1">
          <mxGeometry width="50" height="50" relative="1" as="geometry">
            <mxPoint x="600" y="370" as="sourcePoint" />
            <mxPoint x="830" y="270" as="targetPoint" />
          </mxGeometry>
        </mxCell>
        <mxCell id="zMtMV4mrz83m1IBiiHHf-26" value="" style="endArrow=none;html=1;rounded=0;exitX=1;exitY=0.5;exitDx=0;exitDy=0;entryX=1;entryY=1;entryDx=0;entryDy=0;entryPerimeter=0;" parent="1" source="zMtMV4mrz83m1IBiiHHf-7" target="cEm0epeF5T8bGO8NXPR_-3" edge="1">
          <mxGeometry width="50" height="50" relative="1" as="geometry">
            <mxPoint x="500" y="290" as="sourcePoint" />
            <mxPoint x="790" y="370" as="targetPoint" />
          </mxGeometry>
        </mxCell>
        <mxCell id="zMtMV4mrz83m1IBiiHHf-28" value="" style="endArrow=none;html=1;rounded=0;exitX=0.5;exitY=0;exitDx=0;exitDy=0;" parent="1" source="zMtMV4mrz83m1IBiiHHf-7" edge="1">
          <mxGeometry width="50" height="50" relative="1" as="geometry">
            <mxPoint x="450" y="230" as="sourcePoint" />
            <mxPoint x="370" y="230" as="targetPoint" />
            <Array as="points">
              <mxPoint x="430" y="230" />
            </Array>
          </mxGeometry>
        </mxCell>
        <mxCell id="zMtMV4mrz83m1IBiiHHf-30" value="" style="endArrow=none;html=1;rounded=0;entryX=0;entryY=0.5;entryDx=0;entryDy=0;" parent="1" target="zMtMV4mrz83m1IBiiHHf-2" edge="1">
          <mxGeometry width="50" height="50" relative="1" as="geometry">
            <mxPoint x="480" y="230" as="sourcePoint" />
            <mxPoint x="690" y="210" as="targetPoint" />
            <Array as="points">
              <mxPoint x="480" y="110" />
            </Array>
          </mxGeometry>
        </mxCell>
        <mxCell id="zMtMV4mrz83m1IBiiHHf-31" value="GComment" style="rounded=0;whiteSpace=wrap;html=1;" parent="1" vertex="1">
          <mxGeometry x="105" y="520" width="120" height="60" as="geometry" />
        </mxCell>
        <mxCell id="zMtMV4mrz83m1IBiiHHf-33" value="Text" style="ellipse;whiteSpace=wrap;html=1;" parent="1" vertex="1">
          <mxGeometry x="105" y="710" width="120" height="80" as="geometry" />
        </mxCell>
        <mxCell id="zMtMV4mrz83m1IBiiHHf-34" value="" style="endArrow=none;html=1;rounded=0;exitX=0.5;exitY=1;exitDx=0;exitDy=0;" parent="1" source="zMtMV4mrz83m1IBiiHHf-31" edge="1">
          <mxGeometry width="50" height="50" relative="1" as="geometry">
            <mxPoint x="215" y="690" as="sourcePoint" />
            <mxPoint x="165" y="710" as="targetPoint" />
          </mxGeometry>
        </mxCell>
        <mxCell id="zMtMV4mrz83m1IBiiHHf-39" value="Name" style="ellipse;whiteSpace=wrap;html=1;" parent="1" vertex="1">
          <mxGeometry x="490" y="440" width="120" height="80" as="geometry" />
        </mxCell>
        <mxCell id="zMtMV4mrz83m1IBiiHHf-40" value="UserName" style="ellipse;whiteSpace=wrap;html=1;" parent="1" vertex="1">
          <mxGeometry x="490" y="530" width="120" height="80" as="geometry" />
        </mxCell>
        <mxCell id="zMtMV4mrz83m1IBiiHHf-41" value="email" style="ellipse;whiteSpace=wrap;html=1;" parent="1" vertex="1">
          <mxGeometry x="490" y="620" width="120" height="80" as="geometry" />
        </mxCell>
        <mxCell id="zMtMV4mrz83m1IBiiHHf-42" value="password" style="ellipse;whiteSpace=wrap;html=1;" parent="1" vertex="1">
          <mxGeometry x="490" y="710" width="120" height="80" as="geometry" />
        </mxCell>
        <mxCell id="zMtMV4mrz83m1IBiiHHf-43" value="admin" style="ellipse;whiteSpace=wrap;html=1;" parent="1" vertex="1">
          <mxGeometry x="490" y="800" width="120" height="80" as="geometry" />
        </mxCell>
        <mxCell id="zMtMV4mrz83m1IBiiHHf-44" value="worker" style="ellipse;whiteSpace=wrap;html=1;" parent="1" vertex="1">
          <mxGeometry x="490" y="890" width="120" height="80" as="geometry" />
        </mxCell>
        <mxCell id="zMtMV4mrz83m1IBiiHHf-47" value="" style="endArrow=none;html=1;rounded=0;" parent="1" edge="1">
          <mxGeometry width="50" height="50" relative="1" as="geometry">
            <mxPoint x="430" y="930" as="sourcePoint" />
            <mxPoint x="430" y="400" as="targetPoint" />
          </mxGeometry>
        </mxCell>
        <mxCell id="zMtMV4mrz83m1IBiiHHf-49" value="" style="endArrow=none;html=1;rounded=0;entryX=0;entryY=0.5;entryDx=0;entryDy=0;" parent="1" edge="1">
          <mxGeometry width="50" height="50" relative="1" as="geometry">
            <mxPoint x="430" y="479.5" as="sourcePoint" />
            <mxPoint x="490" y="479.5" as="targetPoint" />
          </mxGeometry>
        </mxCell>
        <mxCell id="zMtMV4mrz83m1IBiiHHf-50" value="" style="endArrow=none;html=1;rounded=0;entryX=0;entryY=0.5;entryDx=0;entryDy=0;" parent="1" edge="1">
          <mxGeometry width="50" height="50" relative="1" as="geometry">
            <mxPoint x="430" y="569.5" as="sourcePoint" />
            <mxPoint x="490" y="569.5" as="targetPoint" />
          </mxGeometry>
        </mxCell>
        <mxCell id="zMtMV4mrz83m1IBiiHHf-51" value="" style="endArrow=none;html=1;rounded=0;entryX=0;entryY=0.5;entryDx=0;entryDy=0;" parent="1" edge="1">
          <mxGeometry width="50" height="50" relative="1" as="geometry">
            <mxPoint x="430" y="659.5" as="sourcePoint" />
            <mxPoint x="490" y="659.5" as="targetPoint" />
          </mxGeometry>
        </mxCell>
        <mxCell id="zMtMV4mrz83m1IBiiHHf-52" value="" style="endArrow=none;html=1;rounded=0;entryX=0;entryY=0.5;entryDx=0;entryDy=0;" parent="1" edge="1">
          <mxGeometry width="50" height="50" relative="1" as="geometry">
            <mxPoint x="430" y="749.5" as="sourcePoint" />
            <mxPoint x="490" y="749.5" as="targetPoint" />
          </mxGeometry>
        </mxCell>
        <mxCell id="zMtMV4mrz83m1IBiiHHf-53" value="" style="endArrow=none;html=1;rounded=0;entryX=0;entryY=0.5;entryDx=0;entryDy=0;" parent="1" edge="1">
          <mxGeometry width="50" height="50" relative="1" as="geometry">
            <mxPoint x="430" y="839.5" as="sourcePoint" />
            <mxPoint x="490" y="839.5" as="targetPoint" />
          </mxGeometry>
        </mxCell>
        <mxCell id="zMtMV4mrz83m1IBiiHHf-54" value="" style="endArrow=none;html=1;rounded=0;entryX=0;entryY=0.5;entryDx=0;entryDy=0;" parent="1" edge="1">
          <mxGeometry width="50" height="50" relative="1" as="geometry">
            <mxPoint x="430" y="929.5" as="sourcePoint" />
            <mxPoint x="490" y="929.5" as="targetPoint" />
          </mxGeometry>
        </mxCell>
        <mxCell id="zMtMV4mrz83m1IBiiHHf-57" value="" style="endArrow=none;html=1;rounded=0;entryX=0;entryY=0.5;entryDx=0;entryDy=0;" parent="1" target="zMtMV4mrz83m1IBiiHHf-7" edge="1">
          <mxGeometry width="50" height="50" relative="1" as="geometry">
            <mxPoint x="160" y="370" as="sourcePoint" />
            <mxPoint x="350" y="440" as="targetPoint" />
          </mxGeometry>
        </mxCell>
        <mxCell id="zMtMV4mrz83m1IBiiHHf-58" value="" style="endArrow=none;html=1;rounded=0;" parent="1" target="zMtMV4mrz83m1IBiiHHf-31" edge="1">
          <mxGeometry width="50" height="50" relative="1" as="geometry">
            <mxPoint x="165" y="370" as="sourcePoint" />
            <mxPoint x="326" y="440" as="targetPoint" />
          </mxGeometry>
        </mxCell>
        <mxCell id="zMtMV4mrz83m1IBiiHHf-62" value="Name" style="ellipse;whiteSpace=wrap;html=1;" parent="1" vertex="1">
          <mxGeometry x="-140" y="625" width="120" height="80" as="geometry" />
        </mxCell>
        <mxCell id="zMtMV4mrz83m1IBiiHHf-63" value="Discription" style="ellipse;whiteSpace=wrap;html=1;" parent="1" vertex="1">
          <mxGeometry x="-140" y="715" width="120" height="80" as="geometry" />
        </mxCell>
        <mxCell id="zMtMV4mrz83m1IBiiHHf-64" value="Specification" style="ellipse;whiteSpace=wrap;html=1;" parent="1" vertex="1">
          <mxGeometry x="-140" y="805" width="120" height="80" as="geometry" />
        </mxCell>
        <mxCell id="zMtMV4mrz83m1IBiiHHf-65" value="Picture" style="ellipse;whiteSpace=wrap;html=1;" parent="1" vertex="1">
          <mxGeometry x="-140" y="895" width="120" height="80" as="geometry" />
        </mxCell>
        <mxCell id="zMtMV4mrz83m1IBiiHHf-66" value="Price" style="ellipse;whiteSpace=wrap;html=1;" parent="1" vertex="1">
          <mxGeometry x="-140" y="985" width="120" height="80" as="geometry" />
        </mxCell>
        <mxCell id="zMtMV4mrz83m1IBiiHHf-68" value="" style="endArrow=none;html=1;rounded=0;" parent="1" edge="1">
          <mxGeometry width="50" height="50" relative="1" as="geometry">
            <mxPoint x="-200" y="1025" as="sourcePoint" />
            <mxPoint x="-200" y="575" as="targetPoint" />
          </mxGeometry>
        </mxCell>
        <mxCell id="zMtMV4mrz83m1IBiiHHf-70" value="" style="endArrow=none;html=1;rounded=0;entryX=0;entryY=0.5;entryDx=0;entryDy=0;" parent="1" edge="1">
          <mxGeometry width="50" height="50" relative="1" as="geometry">
            <mxPoint x="-200" y="664.5" as="sourcePoint" />
            <mxPoint x="-140" y="664.5" as="targetPoint" />
          </mxGeometry>
        </mxCell>
        <mxCell id="zMtMV4mrz83m1IBiiHHf-71" value="" style="endArrow=none;html=1;rounded=0;entryX=0;entryY=0.5;entryDx=0;entryDy=0;" parent="1" edge="1">
          <mxGeometry width="50" height="50" relative="1" as="geometry">
            <mxPoint x="-200" y="754.5" as="sourcePoint" />
            <mxPoint x="-140" y="754.5" as="targetPoint" />
          </mxGeometry>
        </mxCell>
        <mxCell id="zMtMV4mrz83m1IBiiHHf-72" value="" style="endArrow=none;html=1;rounded=0;entryX=0;entryY=0.5;entryDx=0;entryDy=0;" parent="1" edge="1">
          <mxGeometry width="50" height="50" relative="1" as="geometry">
            <mxPoint x="-200" y="844.5" as="sourcePoint" />
            <mxPoint x="-140" y="844.5" as="targetPoint" />
          </mxGeometry>
        </mxCell>
        <mxCell id="zMtMV4mrz83m1IBiiHHf-73" value="" style="endArrow=none;html=1;rounded=0;entryX=0;entryY=0.5;entryDx=0;entryDy=0;" parent="1" edge="1">
          <mxGeometry width="50" height="50" relative="1" as="geometry">
            <mxPoint x="-200" y="934.5" as="sourcePoint" />
            <mxPoint x="-140" y="934.5" as="targetPoint" />
          </mxGeometry>
        </mxCell>
        <mxCell id="zMtMV4mrz83m1IBiiHHf-74" value="" style="endArrow=none;html=1;rounded=0;entryX=0;entryY=0.5;entryDx=0;entryDy=0;" parent="1" edge="1">
          <mxGeometry width="50" height="50" relative="1" as="geometry">
            <mxPoint x="-200" y="1024.5" as="sourcePoint" />
            <mxPoint x="-140" y="1025" as="targetPoint" />
          </mxGeometry>
        </mxCell>
        <mxCell id="zMtMV4mrz83m1IBiiHHf-77" value="" style="endArrow=none;html=1;rounded=0;exitX=1;exitY=0.5;exitDx=0;exitDy=0;entryX=0;entryY=0.5;entryDx=0;entryDy=0;" parent="1" source="zMtMV4mrz83m1IBiiHHf-5" target="zMtMV4mrz83m1IBiiHHf-31" edge="1">
          <mxGeometry width="50" height="50" relative="1" as="geometry">
            <mxPoint x="-100" y="480" as="sourcePoint" />
            <mxPoint x="10" y="540" as="targetPoint" />
          </mxGeometry>
        </mxCell>
        <mxCell id="zMtMV4mrz83m1IBiiHHf-79" value="Category" style="rounded=0;whiteSpace=wrap;html=1;" parent="1" vertex="1">
          <mxGeometry x="-260" y="30" width="120" height="60" as="geometry" />
        </mxCell>
        <mxCell id="zMtMV4mrz83m1IBiiHHf-80" value="AgeRate" style="rounded=0;whiteSpace=wrap;html=1;" parent="1" vertex="1">
          <mxGeometry x="-690" y="320" width="120" height="60" as="geometry" />
        </mxCell>
        <mxCell id="zMtMV4mrz83m1IBiiHHf-81" value="Specification" style="rounded=0;whiteSpace=wrap;html=1;" parent="1" vertex="1">
          <mxGeometry x="-690" y="520" width="120" height="60" as="geometry" />
        </mxCell>
        <mxCell id="zMtMV4mrz83m1IBiiHHf-108" value="OS" style="ellipse;whiteSpace=wrap;html=1;" parent="1" vertex="1">
          <mxGeometry x="-580" y="610" width="120" height="80" as="geometry" />
        </mxCell>
        <mxCell id="zMtMV4mrz83m1IBiiHHf-109" value="CPU" style="ellipse;whiteSpace=wrap;html=1;" parent="1" vertex="1">
          <mxGeometry x="-580" y="700" width="120" height="80" as="geometry" />
        </mxCell>
        <mxCell id="zMtMV4mrz83m1IBiiHHf-110" value="RAM" style="ellipse;whiteSpace=wrap;html=1;" parent="1" vertex="1">
          <mxGeometry x="-580" y="790" width="120" height="80" as="geometry" />
        </mxCell>
        <mxCell id="zMtMV4mrz83m1IBiiHHf-111" value="GPU" style="ellipse;whiteSpace=wrap;html=1;" parent="1" vertex="1">
          <mxGeometry x="-580" y="880" width="120" height="80" as="geometry" />
        </mxCell>
        <mxCell id="zMtMV4mrz83m1IBiiHHf-112" value="DirectX" style="ellipse;whiteSpace=wrap;html=1;" parent="1" vertex="1">
          <mxGeometry x="-580" y="970" width="120" height="80" as="geometry" />
        </mxCell>
        <mxCell id="zMtMV4mrz83m1IBiiHHf-113" value="" style="endArrow=none;html=1;rounded=0;" parent="1" edge="1">
          <mxGeometry width="50" height="50" relative="1" as="geometry">
            <mxPoint x="-640" y="1100" as="sourcePoint" />
            <mxPoint x="-640" y="580" as="targetPoint" />
          </mxGeometry>
        </mxCell>
        <mxCell id="zMtMV4mrz83m1IBiiHHf-115" value="" style="endArrow=none;html=1;rounded=0;entryX=0;entryY=0.5;entryDx=0;entryDy=0;" parent="1" edge="1">
          <mxGeometry width="50" height="50" relative="1" as="geometry">
            <mxPoint x="-640" y="649.5" as="sourcePoint" />
            <mxPoint x="-580" y="649.5" as="targetPoint" />
          </mxGeometry>
        </mxCell>
        <mxCell id="zMtMV4mrz83m1IBiiHHf-116" value="" style="endArrow=none;html=1;rounded=0;entryX=0;entryY=0.5;entryDx=0;entryDy=0;" parent="1" edge="1">
          <mxGeometry width="50" height="50" relative="1" as="geometry">
            <mxPoint x="-640" y="739.5" as="sourcePoint" />
            <mxPoint x="-580" y="739.5" as="targetPoint" />
          </mxGeometry>
        </mxCell>
        <mxCell id="zMtMV4mrz83m1IBiiHHf-117" value="" style="endArrow=none;html=1;rounded=0;entryX=0;entryY=0.5;entryDx=0;entryDy=0;" parent="1" edge="1">
          <mxGeometry width="50" height="50" relative="1" as="geometry">
            <mxPoint x="-640" y="829.5" as="sourcePoint" />
            <mxPoint x="-580" y="829.5" as="targetPoint" />
          </mxGeometry>
        </mxCell>
        <mxCell id="zMtMV4mrz83m1IBiiHHf-118" value="" style="endArrow=none;html=1;rounded=0;entryX=0;entryY=0.5;entryDx=0;entryDy=0;" parent="1" edge="1">
          <mxGeometry width="50" height="50" relative="1" as="geometry">
            <mxPoint x="-640" y="919.5" as="sourcePoint" />
            <mxPoint x="-580" y="919.5" as="targetPoint" />
          </mxGeometry>
        </mxCell>
        <mxCell id="zMtMV4mrz83m1IBiiHHf-119" value="" style="endArrow=none;html=1;rounded=0;entryX=0;entryY=0.5;entryDx=0;entryDy=0;" parent="1" edge="1">
          <mxGeometry width="50" height="50" relative="1" as="geometry">
            <mxPoint x="-640" y="1009.5" as="sourcePoint" />
            <mxPoint x="-580" y="1010" as="targetPoint" />
          </mxGeometry>
        </mxCell>
        <mxCell id="zMtMV4mrz83m1IBiiHHf-120" value="DriveSpace" style="ellipse;whiteSpace=wrap;html=1;" parent="1" vertex="1">
          <mxGeometry x="-580" y="1060" width="120" height="80" as="geometry" />
        </mxCell>
        <mxCell id="zMtMV4mrz83m1IBiiHHf-121" value="" style="endArrow=none;html=1;rounded=0;entryX=0;entryY=0.5;entryDx=0;entryDy=0;" parent="1" edge="1">
          <mxGeometry width="50" height="50" relative="1" as="geometry">
            <mxPoint x="-640" y="1099.5" as="sourcePoint" />
            <mxPoint x="-580" y="1100" as="targetPoint" />
          </mxGeometry>
        </mxCell>
        <mxCell id="zMtMV4mrz83m1IBiiHHf-125" value="" style="endArrow=none;html=1;rounded=0;exitX=1;exitY=0.5;exitDx=0;exitDy=0;entryX=0;entryY=0.5;entryDx=0;entryDy=0;" parent="1" source="zMtMV4mrz83m1IBiiHHf-81" target="zMtMV4mrz83m1IBiiHHf-5" edge="1">
          <mxGeometry width="50" height="50" relative="1" as="geometry">
            <mxPoint x="-350" y="550" as="sourcePoint" />
            <mxPoint x="-310" y="600" as="targetPoint" />
          </mxGeometry>
        </mxCell>
        <mxCell id="zMtMV4mrz83m1IBiiHHf-133" value="Age" style="ellipse;whiteSpace=wrap;html=1;" parent="1" vertex="1">
          <mxGeometry x="-930" y="310" width="120" height="80" as="geometry" />
        </mxCell>
        <mxCell id="zMtMV4mrz83m1IBiiHHf-135" value="" style="endArrow=none;html=1;rounded=0;exitX=0;exitY=0.5;exitDx=0;exitDy=0;" parent="1" source="zMtMV4mrz83m1IBiiHHf-80" edge="1">
          <mxGeometry width="50" height="50" relative="1" as="geometry">
            <mxPoint x="-1030" y="350" as="sourcePoint" />
            <mxPoint x="-810" y="350" as="targetPoint" />
          </mxGeometry>
        </mxCell>
        <mxCell id="zMtMV4mrz83m1IBiiHHf-141" value="" style="endArrow=none;html=1;rounded=0;exitX=0.5;exitY=0;exitDx=0;exitDy=0;entryX=0.5;entryY=1;entryDx=0;entryDy=0;" parent="1" source="zMtMV4mrz83m1IBiiHHf-5" target="zMtMV4mrz83m1IBiiHHf-143" edge="1">
          <mxGeometry width="50" height="50" relative="1" as="geometry">
            <mxPoint x="-170" y="430" as="sourcePoint" />
            <mxPoint x="-200" y="270" as="targetPoint" />
          </mxGeometry>
        </mxCell>
        <mxCell id="zMtMV4mrz83m1IBiiHHf-142" value="" style="endArrow=none;html=1;rounded=0;" parent="1" source="zMtMV4mrz83m1IBiiHHf-80" edge="1">
          <mxGeometry width="50" height="50" relative="1" as="geometry">
            <mxPoint x="-350" y="350" as="sourcePoint" />
            <mxPoint x="-200" y="350" as="targetPoint" />
          </mxGeometry>
        </mxCell>
        <mxCell id="zMtMV4mrz83m1IBiiHHf-143" value="Have" style="rhombus;whiteSpace=wrap;html=1;" parent="1" vertex="1">
          <mxGeometry x="-275" y="150" width="150" height="60" as="geometry" />
        </mxCell>
        <mxCell id="zMtMV4mrz83m1IBiiHHf-144" value="" style="endArrow=none;html=1;rounded=0;entryX=0.5;entryY=1;entryDx=0;entryDy=0;exitX=0.5;exitY=0;exitDx=0;exitDy=0;" parent="1" source="zMtMV4mrz83m1IBiiHHf-143" target="zMtMV4mrz83m1IBiiHHf-79" edge="1">
          <mxGeometry width="50" height="50" relative="1" as="geometry">
            <mxPoint x="-115" y="270" as="sourcePoint" />
            <mxPoint x="-45" y="270" as="targetPoint" />
          </mxGeometry>
        </mxCell>
        <mxCell id="zMtMV4mrz83m1IBiiHHf-147" value="Name" style="ellipse;whiteSpace=wrap;html=1;" parent="1" vertex="1">
          <mxGeometry x="-260" y="-130" width="120" height="80" as="geometry" />
        </mxCell>
        <mxCell id="zMtMV4mrz83m1IBiiHHf-148" value="" style="endArrow=none;html=1;rounded=0;entryX=0.5;entryY=1;entryDx=0;entryDy=0;exitX=0.5;exitY=0;exitDx=0;exitDy=0;" parent="1" source="zMtMV4mrz83m1IBiiHHf-79" edge="1">
          <mxGeometry width="50" height="50" relative="1" as="geometry">
            <mxPoint x="-160" y="20" as="sourcePoint" />
            <mxPoint x="-199.99999999999955" y="-50" as="targetPoint" />
          </mxGeometry>
        </mxCell>
        <mxCell id="zMtMV4mrz83m1IBiiHHf-154" value="TotaPrice" style="ellipse;whiteSpace=wrap;html=1;" parent="1" vertex="1">
          <mxGeometry x="105" y="-100" width="120" height="80" as="geometry" />
        </mxCell>
        <mxCell id="cEm0epeF5T8bGO8NXPR_-1" value="1" style="text;html=1;align=center;verticalAlign=middle;resizable=0;points=[];autosize=1;strokeColor=none;fillColor=none;" vertex="1" parent="1">
          <mxGeometry x="490" y="340" width="30" height="30" as="geometry" />
        </mxCell>
        <mxCell id="cEm0epeF5T8bGO8NXPR_-3" value="M" style="text;html=1;align=center;verticalAlign=middle;resizable=0;points=[];autosize=1;strokeColor=none;fillColor=none;" vertex="1" parent="1">
          <mxGeometry x="750" y="340" width="30" height="30" as="geometry" />
        </mxCell>
        <mxCell id="cEm0epeF5T8bGO8NXPR_-4" value="M" style="text;html=1;align=center;verticalAlign=middle;resizable=0;points=[];autosize=1;strokeColor=none;fillColor=none;" vertex="1" parent="1">
          <mxGeometry x="827" y="140" width="30" height="30" as="geometry" />
        </mxCell>
        <mxCell id="cEm0epeF5T8bGO8NXPR_-5" value="1" style="text;html=1;align=center;verticalAlign=middle;resizable=0;points=[];autosize=1;strokeColor=none;fillColor=none;" vertex="1" parent="1">
          <mxGeometry x="830" y="310" width="30" height="30" as="geometry" />
        </mxCell>
        <mxCell id="cEm0epeF5T8bGO8NXPR_-7" value="M" style="text;html=1;align=center;verticalAlign=middle;resizable=0;points=[];autosize=1;strokeColor=none;fillColor=none;" vertex="1" parent="1">
          <mxGeometry x="740" y="80" width="30" height="30" as="geometry" />
        </mxCell>
        <mxCell id="cEm0epeF5T8bGO8NXPR_-9" value="1" style="text;html=1;align=center;verticalAlign=middle;resizable=0;points=[];autosize=1;strokeColor=none;fillColor=none;" vertex="1" parent="1">
          <mxGeometry x="340" y="340" width="30" height="30" as="geometry" />
        </mxCell>
        <mxCell id="cEm0epeF5T8bGO8NXPR_-10" value="M" style="text;html=1;align=center;verticalAlign=middle;resizable=0;points=[];autosize=1;strokeColor=none;fillColor=none;" vertex="1" parent="1">
          <mxGeometry x="170" y="490" width="30" height="30" as="geometry" />
        </mxCell>
        <mxCell id="cEm0epeF5T8bGO8NXPR_-11" value="M" style="text;html=1;align=center;verticalAlign=middle;resizable=0;points=[];autosize=1;strokeColor=none;fillColor=none;" vertex="1" parent="1">
          <mxGeometry x="75" y="520" width="30" height="30" as="geometry" />
        </mxCell>
        <mxCell id="cEm0epeF5T8bGO8NXPR_-12" value="1" style="text;html=1;align=center;verticalAlign=middle;resizable=0;points=[];autosize=1;strokeColor=none;fillColor=none;" vertex="1" parent="1">
          <mxGeometry x="-140" y="520" width="30" height="30" as="geometry" />
        </mxCell>
        <mxCell id="cEm0epeF5T8bGO8NXPR_-15" value="1" style="text;html=1;align=center;verticalAlign=middle;resizable=0;points=[];autosize=1;strokeColor=none;fillColor=none;" vertex="1" parent="1">
          <mxGeometry x="-290" y="520" width="30" height="30" as="geometry" />
        </mxCell>
        <mxCell id="cEm0epeF5T8bGO8NXPR_-16" value="1" style="text;html=1;align=center;verticalAlign=middle;resizable=0;points=[];autosize=1;strokeColor=none;fillColor=none;" vertex="1" parent="1">
          <mxGeometry x="-570" y="520" width="30" height="30" as="geometry" />
        </mxCell>
        <mxCell id="cEm0epeF5T8bGO8NXPR_-17" value="M" style="text;html=1;align=center;verticalAlign=middle;resizable=0;points=[];autosize=1;strokeColor=none;fillColor=none;" vertex="1" parent="1">
          <mxGeometry x="-570" y="320" width="30" height="30" as="geometry" />
        </mxCell>
        <mxCell id="cEm0epeF5T8bGO8NXPR_-18" value="1" style="text;html=1;align=center;verticalAlign=middle;resizable=0;points=[];autosize=1;strokeColor=none;fillColor=none;" vertex="1" parent="1">
          <mxGeometry x="-230" y="320" width="30" height="30" as="geometry" />
        </mxCell>
        <mxCell id="cEm0epeF5T8bGO8NXPR_-19" value="M" style="text;html=1;align=center;verticalAlign=middle;resizable=0;points=[];autosize=1;strokeColor=none;fillColor=none;" vertex="1" parent="1">
          <mxGeometry x="-200" y="210" width="30" height="30" as="geometry" />
        </mxCell>
        <mxCell id="cEm0epeF5T8bGO8NXPR_-20" value="M" style="text;html=1;align=center;verticalAlign=middle;resizable=0;points=[];autosize=1;strokeColor=none;fillColor=none;" vertex="1" parent="1">
          <mxGeometry x="-200" y="90" width="30" height="30" as="geometry" />
        </mxCell>
        <mxCell id="cEm0epeF5T8bGO8NXPR_-21" value="Include" style="rhombus;whiteSpace=wrap;html=1;" vertex="1" parent="1">
          <mxGeometry x="-75" y="220" width="150" height="60" as="geometry" />
        </mxCell>
        <mxCell id="cEm0epeF5T8bGO8NXPR_-22" value="" style="endArrow=none;html=1;rounded=0;entryX=0.5;entryY=1;entryDx=0;entryDy=0;exitX=0.5;exitY=0;exitDx=0;exitDy=0;" edge="1" parent="1" source="zMtMV4mrz83m1IBiiHHf-6">
          <mxGeometry width="50" height="50" relative="1" as="geometry">
            <mxPoint x="224" y="50" as="sourcePoint" />
            <mxPoint x="165" y="-20" as="targetPoint" />
          </mxGeometry>
        </mxCell>
        <mxCell id="cEm0epeF5T8bGO8NXPR_-26" value="" style="endArrow=none;html=1;rounded=0;exitX=1;exitY=0.5;exitDx=0;exitDy=0;" edge="1" parent="1" source="zMtMV4mrz83m1IBiiHHf-6">
          <mxGeometry width="50" height="50" relative="1" as="geometry">
            <mxPoint x="440" y="120" as="sourcePoint" />
            <mxPoint x="370" y="230" as="targetPoint" />
            <Array as="points">
              <mxPoint x="370" y="110" />
            </Array>
          </mxGeometry>
        </mxCell>
        <mxCell id="cEm0epeF5T8bGO8NXPR_-27" value="" style="endArrow=none;html=1;rounded=0;exitX=1;exitY=0;exitDx=0;exitDy=0;" edge="1" parent="1" source="zMtMV4mrz83m1IBiiHHf-5">
          <mxGeometry width="50" height="50" relative="1" as="geometry">
            <mxPoint x="-30" y="540" as="sourcePoint" />
            <mxPoint y="410" as="targetPoint" />
            <Array as="points">
              <mxPoint x="-140" y="410" />
            </Array>
          </mxGeometry>
        </mxCell>
        <mxCell id="cEm0epeF5T8bGO8NXPR_-28" value="" style="endArrow=none;html=1;rounded=0;entryX=0.5;entryY=1;entryDx=0;entryDy=0;" edge="1" parent="1" target="cEm0epeF5T8bGO8NXPR_-21">
          <mxGeometry width="50" height="50" relative="1" as="geometry">
            <mxPoint y="410" as="sourcePoint" />
            <mxPoint x="50" y="260" as="targetPoint" />
          </mxGeometry>
        </mxCell>
        <mxCell id="cEm0epeF5T8bGO8NXPR_-29" value="M" style="text;html=1;align=center;verticalAlign=middle;resizable=0;points=[];autosize=1;strokeColor=none;fillColor=none;" vertex="1" parent="1">
          <mxGeometry y="280" width="30" height="30" as="geometry" />
        </mxCell>
        <mxCell id="cEm0epeF5T8bGO8NXPR_-30" value="" style="endArrow=none;html=1;rounded=0;exitX=0;exitY=0.5;exitDx=0;exitDy=0;entryX=0.5;entryY=0;entryDx=0;entryDy=0;" edge="1" parent="1" source="zMtMV4mrz83m1IBiiHHf-6" target="cEm0epeF5T8bGO8NXPR_-21">
          <mxGeometry width="50" height="50" relative="1" as="geometry">
            <mxPoint x="30" y="109" as="sourcePoint" />
            <mxPoint x="-100" y="109" as="targetPoint" />
            <Array as="points">
              <mxPoint y="110" />
            </Array>
          </mxGeometry>
        </mxCell>
        <mxCell id="cEm0epeF5T8bGO8NXPR_-31" value="M" style="text;html=1;align=center;verticalAlign=middle;resizable=0;points=[];autosize=1;strokeColor=none;fillColor=none;" vertex="1" parent="1">
          <mxGeometry y="190" width="30" height="30" as="geometry" />
        </mxCell>
        <mxCell id="cEm0epeF5T8bGO8NXPR_-32" value="" style="endArrow=none;html=1;rounded=0;entryX=0;entryY=0.5;entryDx=0;entryDy=0;exitX=1;exitY=0.5;exitDx=0;exitDy=0;" edge="1" parent="1" source="cEm0epeF5T8bGO8NXPR_-37" target="zMtMV4mrz83m1IBiiHHf-143">
          <mxGeometry width="50" height="50" relative="1" as="geometry">
            <mxPoint x="-410" y="180" as="sourcePoint" />
            <mxPoint x="-320" y="179.5" as="targetPoint" />
          </mxGeometry>
        </mxCell>
        <mxCell id="cEm0epeF5T8bGO8NXPR_-33" value="" style="endArrow=none;html=1;rounded=0;exitX=1;exitY=0.5;exitDx=0;exitDy=0;entryX=0;entryY=0.5;entryDx=0;entryDy=0;" edge="1" parent="1" source="cEm0epeF5T8bGO8NXPR_-21" target="cEm0epeF5T8bGO8NXPR_-34">
          <mxGeometry width="50" height="50" relative="1" as="geometry">
            <mxPoint x="97.5" y="249.5" as="sourcePoint" />
            <mxPoint x="160" y="250" as="targetPoint" />
          </mxGeometry>
        </mxCell>
        <mxCell id="cEm0epeF5T8bGO8NXPR_-34" value="GamesKeyCount" style="ellipse;whiteSpace=wrap;html=1;" vertex="1" parent="1">
          <mxGeometry x="160" y="210" width="120" height="80" as="geometry" />
        </mxCell>
        <mxCell id="cEm0epeF5T8bGO8NXPR_-37" value="" style="ellipse;whiteSpace=wrap;html=1;" vertex="1" parent="1">
          <mxGeometry x="-540" y="140" width="120" height="80" as="geometry" />
        </mxCell>
        <mxCell id="cEm0epeF5T8bGO8NXPR_-38" value="1" style="text;html=1;align=center;verticalAlign=middle;resizable=0;points=[];autosize=1;strokeColor=none;fillColor=none;" vertex="1" parent="1">
          <mxGeometry x="430" y="310" width="30" height="30" as="geometry" />
        </mxCell>
        <mxCell id="cEm0epeF5T8bGO8NXPR_-39" value="1" style="text;html=1;align=center;verticalAlign=middle;resizable=0;points=[];autosize=1;strokeColor=none;fillColor=none;" vertex="1" parent="1">
          <mxGeometry x="225" y="80" width="30" height="30" as="geometry" />
        </mxCell>
        <mxCell id="cEm0epeF5T8bGO8NXPR_-41" value="" style="endArrow=none;html=1;rounded=0;" edge="1" parent="1">
          <mxGeometry width="50" height="50" relative="1" as="geometry">
            <mxPoint x="430" y="230" as="sourcePoint" />
            <mxPoint x="480" y="230" as="targetPoint" />
          </mxGeometry>
        </mxCell>
      </root>
    </mxGraphModel>
  </diagram>
</mxfile>
